<svg xmlns="http://www.w3.org/2000/svg" xmlns:xlink="http://www.w3.org/1999/xlink" viewBox="0,0,256,256" width="48px" height="48px" fill-rule="nonzero"><g fill="none" fill-rule="nonzero" stroke="none" stroke-width="none" stroke-linecap="butt" stroke-linejoin="none" stroke-miterlimit="10" stroke-dasharray="" stroke-dashoffset="0" font-family="none" font-weight="none" font-size="none" text-anchor="none" style="mix-blend-mode: normal"><path transform="scale(5.33333,5.33333)" d="M44,24c0,11.044 -8.956,20 -20,20c-11.044,0 -20,-8.956 -20,-20c0,-11.044 8.956,-20 20,-20c11.044,0 20,8.956 20,20z" id="strokeMainSVG" fill="#ca9b00" stroke="#ca9b00" stroke-width="3" stroke-linejoin="round"></path><g transform="scale(5.33333,5.33333)" stroke="none" stroke-width="1" stroke-linejoin="miter"><path d="M44,24c0,11.044 -8.956,20 -20,20c-11.044,0 -20,-8.956 -20,-20c0,-11.044 8.956,-20 20,-20c11.044,0 20,8.956 20,20z" fill="#ffc107"></path><path d="M17,34v-20h8.199c2.41,0 4.234,0.465 5.48,1.395c1.246,0.93 1.867,2.293 1.867,4.086c0,0.98 -0.25,1.844 -0.746,2.59c-0.5,0.746 -1.195,1.293 -2.086,1.641c1.016,0.258 1.816,0.773 2.402,1.555c0.587,0.776 0.884,1.725 0.884,2.854c0,1.922 -0.609,3.379 -1.828,4.367c-1.219,0.988 -2.953,1.492 -5.207,1.512zM21,22h4.363c2.063,-0.035 3.098,-0.824 3.098,-2.445c0,-0.906 -0.262,-1.559 -0.785,-1.957c-0.523,-0.398 -1.348,-0.598 -2.477,-0.598h-4.199zM21,25v6h4.844c0.961,0 3.156,-0.469 3.156,-2.609c0,-2.14 -1.117,-3.364 -3,-3.391z" fill="#6857f2"></path><path d="M20,11h3v5h-3zM25,11h3v5h-3zM20,32h3v5h-3zM25,32h3v5h-3z" fill="#6857f2"></path></g></g></svg>