<svg xmlns="http://www.w3.org/2000/svg" xmlns:xlink="http://www.w3.org/1999/xlink" viewBox="0,0,256,256" width="100px" height="100px" fill-rule="nonzero"><g transform="translate(-53.76,-53.76) scale(1.42,1.42)"><g fill="none" fill-rule="nonzero" stroke="none" stroke-width="1" stroke-linecap="none" stroke-linejoin="none" stroke-miterlimit="10" stroke-dasharray="" stroke-dashoffset="0" font-family="none" font-weight="none" font-size="none" text-anchor="none" style="mix-blend-mode: normal"><g transform="scale(2.56,2.56)"><path d="M31,82c-6.617,0 -12,-5.383 -12,-12v-39c0,-6.617 5.383,-12 12,-12h39c6.617,0 12,5.383 12,12v39c0,6.617 -5.383,12 -12,12z" fill="#75849d" stroke="none" stroke-linecap="butt" stroke-linejoin="miter"></path><path d="M82.5,40.5l-5,4l-4,8.107l-4,-7.107l-4,3l-3.135,-7.054l-0.865,0.169l-0.715,-0.117l-3.223,9.002l-3.034,1.065l-4.028,5.935l-4,-2l-4,-10l-4,7.933l-4,-1.933l-4,5l-3,1.129l-4,-2.129l-4,-1l-0.416,16.124l2.124,6.623l4.999,3.753l4.153,1l41.511,-0.101l4.854,-1.618l4.275,-5.208l1.034,-6.017z" fill="#6857f2" stroke="none" stroke-linecap="butt" stroke-linejoin="miter"></path><path d="M62.336,41.425l3.164,7.118l4,-3l4,7.107l4,-8.107l5,-4" fill="none" stroke="#24243f" stroke-linecap="round" stroke-linejoin="round"></path><path d="M19.5,54.5l4,1l4,2.129l3,-1.129l4,-5l4,1.933l4,-7.933l4,10l4,2l4.028,-5.935l3.034,-1.065l3.223,-9.002" fill="none" stroke="#24243f" stroke-linecap="round" stroke-linejoin="round"></path><path d="M70,83h-39c-7.18,0 -13,-5.82 -13,-13v-39c0,-7.18 5.82,-13 13,-13h39c7.18,0 13,5.82 13,13v39c0,7.18 -5.821,13 -13,13zM20,31v39c0,6.075 4.925,11 11,11h39c6.075,0 11,-4.925 11,-11v-39c0,-6.075 -4.925,-11 -11,-11h-39c-6.076,0 -11,4.925 -11,11z" fill="#24243f" stroke="none" stroke-linecap="butt" stroke-linejoin="miter"></path><path d="M27.5,41.5v40" fill="none" stroke="#24243f" stroke-linecap="round" stroke-linejoin="round"></path><path d="M27.5,32.5v4" fill="none" stroke="#24243f" stroke-linecap="round" stroke-linejoin="round"></path><path d="M27.5,19.5v10" fill="none" stroke="#24243f" stroke-linecap="round" stroke-linejoin="round"></path><path d="M38.5,73.5v8.5" fill="none" stroke="#24243f" stroke-linecap="round" stroke-linejoin="round"></path><path d="M38.5,20v49.5" fill="none" stroke="#24243f" stroke-linecap="round" stroke-linejoin="round"></path><path d="M50.5,69.5v4" fill="none" stroke="#24243f" stroke-linecap="round" stroke-linejoin="round"></path><path d="M50.5,33.5v33" fill="none" stroke="#24243f" stroke-linecap="round" stroke-linejoin="round"></path><path d="M50.5,28.5v2" fill="none" stroke="#24243f" stroke-linecap="round" stroke-linejoin="round"></path><path d="M61.5,81.5c-0.552,0 -1,-0.449 -1,-1v-60.25c0,-0.551 0.448,-1 1,-1c0.552,0 1,0.449 1,1v60.25c0,0.552 -0.448,1 -1,1z" fill="#fcc419" stroke="none" stroke-linecap="butt" stroke-linejoin="miter"></path><path d="M62,20v61h-1v-61M61.5,18.75c-0.827,0 -1.5,-0.327 -1.5,0.5v62c0,0.827 0.673,1.5 1.5,1.5c0.827,0 1.5,-0.673 1.5,-1.5v-62c0,-0.827 -0.673,-0.5 -1.5,-0.5z" fill="#24243f" stroke="none" stroke-linecap="butt" stroke-linejoin="miter"></path><path d="M64.5,38.5c0,1.367 -0.914,2.52 -2.164,2.882c-0.265,0.077 -0.546,0.118 -0.836,0.118c-1.657,0 -3,-1.343 -3,-3c0,-1.657 1.343,-3 3,-3c1.657,0 3,1.343 3,3z" fill="#fcc419" stroke="none" stroke-linecap="butt" stroke-linejoin="miter"></path><path d="M73.5,39.5v42.5" fill="none" stroke="#24243f" stroke-linecap="round" stroke-linejoin="round"></path><path d="M73.5,32.5v3" fill="none" stroke="#24243f" stroke-linecap="round" stroke-linejoin="round"></path><path d="M73.5,20v9.5" fill="none" stroke="#24243f" stroke-linecap="round" stroke-linejoin="round"></path><path d="M64.5,38.5c0,1.367 -0.914,2.52 -2.164,2.882c-0.265,0.077 -0.546,0.118 -0.836,0.118c-1.657,0 -3,-1.343 -3,-3c0,-1.657 1.343,-3 3,-3c1.657,0 3,1.343 3,3z" fill="none" stroke="#24243f" stroke-linecap="round" stroke-linejoin="round"></path><path d="M50.5,77.5v4.5" fill="none" stroke="#24243f" stroke-linecap="round" stroke-linejoin="round"></path><path d="M50.5,20v4.5" fill="none" stroke="#24243f" stroke-linecap="round" stroke-linejoin="round"></path></g></g></g></svg>