<svg xmlns="http://www.w3.org/2000/svg" version="1.1" xmlns:xlink="http://www.w3.org/1999/xlink" xmlns:svgjs="http://svgjs.dev/svgjs" width="2000" height="1100" preserveAspectRatio="none" viewBox="0 0 2000 1100"><g mask="url(&quot;#SvgjsMask1254&quot;)" fill="none"><rect width="2000" height="1100" x="0" y="0" fill="rgba(40, 40, 66, 1)"></rect><path d="M0 531.06L10 435.22L20 334.22L30 421.94L40 357.71L50 375.25L60 336.6L70 312.32L80 197.5L90 138.9L100 145.65L110 247.66L120 323.83L130 252.38L140 138.83L150 246.57L160 187.46L170 129.01L180 220.24L190 172.11L200 182.84L210 174.23L220 42.36L230 3.52L240 81.97L250 27.73L260 12.99L270 77.82L280 146.49L290 236.76L300 162.9L310 193.14L320 144.9L330 39.28L340 156.82L350 267.62L360 311.01L370 435.4L380 390.05L390 384.08L400 312.14L410 177.02L420 304.61L430 439.47L440 543.05L450 543.87L460 459.54L470 477.79L480 544.43L490 675.89L500 756.78L510 635.23L520 612.26L530 737.59L540 684.84L550 629.48L560 704.45L570 630.77L580 683.5L590 768.72L600 665.62L610 748.08L620 807.77L630 834.88L640 703.23L650 586.5L660 534.85L670 660.27L680 765.02L690 770.88L700 698.42L710 808.16L720 736.7L730 831.58L740 716.86L750 850.97L760 974.65L770 840.28L780 908.27L790 950.26L800 950.28L810 934.8L820 940.15L830 868.92L840 767.36L850 874.6L860 850.15L870 876.08L880 835.5L890 902.56L900 914.26L910 1023.2L920 1068.97L930 954.14L940 968.55L950 902.13L960 1033.02L970 1098.94L980 1074.24L990 1038.13L1000 1049.69L1010 958.91L1020 988.71L1030 1098.55L1040 1050.38L1050 931.81L1060 854.16L1070 763.44L1080 814.35L1090 793.79L1100 750.37L1110 708.83L1120 675.78L1130 635.51L1140 729.93L1150 828.19L1160 841.08L1170 768.58L1180 750.47L1190 626.82L1200 531.9L1210 442.09L1220 523.13L1230 528.66L1240 599.21L1250 666.57L1260 755.41L1270 627.53L1280 585.36L1290 704.73L1300 636.14L1310 580.18L1320 699.61L1330 586.79L1340 665.93L1350 567.42L1360 486.8L1370 389.61L1380 504.53L1390 588.16L1400 622.44L1410 567.04L1420 530.76L1430 539.48L1440 469.62L1450 379.7L1460 462.81L1470 343.49L1480 314.13L1490 303.12L1500 411.41L1510 298.25L1520 281.86L1530 335.93L1540 274L1550 384.44L1560 300.58L1570 323.7L1580 368.43L1590 472.71L1600 484.67L1610 442.19L1620 407.19L1630 523.01L1640 498.48L1650 469.2L1660 350.49L1670 309.25L1680 231.86L1690 364.67L1700 340.87L1710 413.24L1720 382.01L1730 444.66L1740 391.16L1750 490.34L1760 558.16L1770 623.83L1780 571.1L1790 634.58L1800 706L1810 679.72L1820 764.19L1830 860.73L1840 768.74L1850 779.29L1860 899.32L1870 837.85L1880 972.07L1890 1078.19L1900 1069.92L1910 1098.04L1920 1051.75L1930 983.39L1940 895.1L1950 1018.93L1960 945.33L1970 1074.94L1980 1074.64L1990 1035.56L2000 1040.94" stroke="rgba(73, 61, 169, 0.42)" stroke-width="2"></path><path d="M0 531.06L10 435.22L20 334.22L30 421.94L40 357.71L50 375.25L60 336.6L70 312.32L80 197.5L90 138.9L100 145.65L110 247.66L120 323.83L130 252.38L140 138.83L150 246.57L160 187.46L170 129.01L180 220.24L190 172.11L200 182.84L210 174.23L220 42.36L230 3.52L240 81.97L250 27.73L260 12.99L270 77.82L280 146.49L290 236.76L300 162.9L310 193.14L320 144.9L330 39.28L340 156.82L350 267.62L360 311.01L370 435.4L380 390.05L390 384.08L400 312.14L410 177.02L420 304.61L430 439.47L440 543.05L450 543.87L460 459.54L470 477.79L480 544.43L490 675.89L500 756.78L510 635.23L520 612.26L530 737.59L540 684.84L550 629.48L560 704.45L570 630.77L580 683.5L590 768.72L600 665.62L610 748.08L620 807.77L630 834.88L640 703.23L650 586.5L660 534.85L670 660.27L680 765.02L690 770.88L700 698.42L710 808.16L720 736.7L730 831.58L740 716.86L750 850.97L760 974.65L770 840.28L780 908.27L790 950.26L800 950.28L810 934.8L820 940.15L830 868.92L840 767.36L850 874.6L860 850.15L870 876.08L880 835.5L890 902.56L900 914.26L910 1023.2L920 1068.97L930 954.14L940 968.55L950 902.13L960 1033.02L970 1098.94L980 1074.24L990 1038.13L1000 1049.69L1010 958.91L1020 988.71L1030 1098.55L1040 1050.38L1050 931.81L1060 854.16L1070 763.44L1080 814.35L1090 793.79L1100 750.37L1110 708.83L1120 675.78L1130 635.51L1140 729.93L1150 828.19L1160 841.08L1170 768.58L1180 750.47L1190 626.82L1200 531.9L1210 442.09L1220 523.13L1230 528.66L1240 599.21L1250 666.57L1260 755.41L1270 627.53L1280 585.36L1290 704.73L1300 636.14L1310 580.18L1320 699.61L1330 586.79L1340 665.93L1350 567.42L1360 486.8L1370 389.61L1380 504.53L1390 588.16L1400 622.44L1410 567.04L1420 530.76L1430 539.48L1440 469.62L1450 379.7L1460 462.81L1470 343.49L1480 314.13L1490 303.12L1500 411.41L1510 298.25L1520 281.86L1530 335.93L1540 274L1550 384.44L1560 300.58L1570 323.7L1580 368.43L1590 472.71L1600 484.67L1610 442.19L1620 407.19L1630 523.01L1640 498.48L1650 469.2L1660 350.49L1670 309.25L1680 231.86L1690 364.67L1700 340.87L1710 413.24L1720 382.01L1730 444.66L1740 391.16L1750 490.34L1760 558.16L1770 623.83L1780 571.1L1790 634.58L1800 706L1810 679.72L1820 764.19L1830 860.73L1840 768.74L1850 779.29L1860 899.32L1870 837.85L1880 972.07L1890 1078.19L1900 1069.92L1910 1098.04L1920 1051.75L1930 983.39L1940 895.1L1950 1018.93L1960 945.33L1970 1074.94L1980 1074.64L1990 1035.56L2000 1040.94L2000 1100L0 1100z" fill="url(&quot;#SvgjsLinearGradient1255&quot;)"></path></g><defs><mask id="SvgjsMask1254"><rect width="2000" height="1100" fill="#ffffff"></rect></mask><linearGradient x1="50%" y1="0%" x2="50%" y2="100%" id="SvgjsLinearGradient1255"><stop stop-opacity="0.65" stop-color="rgba(73, 61, 169, 0.42)" offset="0"></stop><stop stop-opacity="0" stop-color="rgba(202, 198, 234, 0.42)" offset="0.8"></stop></linearGradient></defs></svg>